<?xml version="1.0" encoding="utf-8"?>
<!-- Generator: Adobe Illustrator 22.1.0, SVG Export Plug-In . SVG Version: 6.00 Build 0)  -->
<svg version="1.1" id="Layer_1" xmlns="http://www.w3.org/2000/svg" xmlns:xlink="http://www.w3.org/1999/xlink" x="0px" y="0px"
	 viewBox="0 0 80 80" style="enable-background:new 0 0 80 80;" xml:space="preserve">
<style type="text/css">
	.st0{fill:#ffffff;}
</style>
<path class="st0" d="M15.9,70l-4.5-4.5c-1-1-1-2.6,0-3.6l50.8-50.8c1-1,2.6-1,3.6,0l4.5,4.5c1,1,1,2.6,0,3.6L19.5,70
	C18.5,71,16.9,71,15.9,70z"/>
<path class="st0" d="M11.4,15.6l4.5-4.5c1-1,2.6-1,3.6,0l50.8,50.8c1,1,1,2.6,0,3.6L65.8,70c-1,1-2.6,1-3.6,0L11.4,19.2
	C10.4,18.2,10.4,16.6,11.4,15.6z"/>
</svg>
