<?xml version="1.0" encoding="utf-8"?>
<!-- Generator: Adobe Illustrator 27.5.0, SVG Export Plug-In . SVG Version: 6.00 Build 0)  -->
<svg version="1.1" id="Layer_1" xmlns="http://www.w3.org/2000/svg" xmlns:xlink="http://www.w3.org/1999/xlink" x="0px" y="0px"
	 viewBox="0 0 80 80" style="enable-background:new 0 0 80 80;" xml:space="preserve">
<style type="text/css">
	.st0{fill:#D3E2DF;}
	.st1{fill:#CCE5E1;}
	.st2{fill:#6D6E71;}
</style>
<rect x="32.2" y="68.8" class="st0" width="34.5" height="8"/>
<g>
	<path class="st1" d="M-39.8-5.4c3.4-3.5,7.9-10.1,15-3.1c6.7,6.6,3.5,10.1-1.6,15.2c-0.1,0.1,0.7-3.8-4.2-8.7
		C-34.9-6.1-39.9-5.4-39.8-5.4z"/>
	<g>
		<path class="st1" d="M-32.4-0.1C-35-2.4-37.6-3.8-42-3.4c0.6-0.4-17.4,17.7-28.4,28.7c2.5,0.8,5.2,2.2,7,4.5
			c2,2.5,3.1,5.9,3.1,8.8c7.9-7.3,31.7-29.2,31.7-29.2C-28.5,6.8-28.4,3.6-32.4-0.1z"/>
		<path class="st1" d="M-62.3,40.5c0-2-1-4.9-5.1-9c-2.5-2.5-4.7-2.9-6.4-2.7c-0.2,0.2-0.3,0.3-0.5,0.5c-8,18.4-9.1,17.9-8.3,18.9
			c0.3,0.3,0.9-0.5,19.9-7.3C-62.8,40.9-62.6,40.8-62.3,40.5z"/>
	</g>
</g>
<g>
	<path class="st0" d="M59.4,25.8c0.9-0.9,1.8-1.8,2.6-2.6l0,0c0.1-0.1,0.1-0.1,0.2-0.1c4.3-4.3,2.2-8-1.4-11.6
		c-3.6-3.6-7.4-5.7-11.6-1.4C49.1,10,49,10.1,49,10.1l0,0l-2.7,2.7c2.1,1.4,4.5,3.3,7.1,5.9C56,21.3,58,23.7,59.4,25.8z"/>
	<path class="st0" d="M27.7,57.5c5.7-5.7,18.7-18.7,28.6-28.6c-1.5-2.6-3.3-5.2-5.7-7.6c-2.3-2.3-4.8-4.1-7.3-5.5L14.6,44.5
		c2.1,1.4,4.5,3.3,7.1,5.9C24.4,53,26.3,55.4,27.7,57.5z"/>
	<path class="st0" d="M24.6,60.4c-1.4-2.6-3.3-5.1-5.6-7.4c-2.3-2.3-4.7-4-7.2-5.4L6.6,65.9L24.6,60.4z"/>
</g>
<path class="st1" d="M-41.5,20.3c0-4.6-3.7-5.5-8.2-5.5c-4.6,0-8.2,0.9-8.2,5.5c0,0.1,0,0.1,0,0.2h0v39.6l8.5,12.7l8-12.7
	c0,0,0-26.4,0-39.6h0C-41.5,20.4-41.5,20.4-41.5,20.3z"/>
<path class="st2" d="M-49.8,25.5c6.9,0,13.1,2.2,16.8,4.1c-0.1-3.8-4.2-7-16.7-7c-12.2,0-16.6,3.1-16.7,7
	C-62.6,27.7-56.7,25.5-49.8,25.5z"/>
<path class="st2" d="M-49.8,59.3c6.9,0,13.1,2.2,16.8,4.1c-0.1-3.8-4.2-7-16.7-7c-12.2,0-16.6,3.1-16.7,7
	C-62.6,61.5-56.7,59.3-49.8,59.3z"/>
</svg>
